<svg width="132" height="186" viewBox="0 0 132 186" fill="none" xmlns="http://www.w3.org/2000/svg">
<path fill-rule="evenodd" clip-rule="evenodd" d="M3.9715 148.168C3.95313 147.974 3.94099 147.778 3.92884 147.582C3.88866 146.933 3.84833 146.281 3.58196 145.691C3.19037 144.821 2.6645 144.08 2.13403 143.333C1.48545 142.42 0.830014 141.497 0.4048 140.316C0.307416 140.053 0.26481 139.754 0.343935 139.486C4.03845 126.812 8.6216 115.469 20.3747 108.031C23.6588 105.954 27.0614 104.215 30.468 102.475C34.625 100.351 38.788 98.2237 42.7487 95.4739C40.8315 94.2108 39.389 92.6976 38.5916 90.9036C37.0213 89.7748 35.9075 87.9748 35.5301 86.6813C35.3777 86.1599 35.4218 85.8428 35.4731 85.4742C35.516 85.1655 35.564 84.8206 35.5057 84.2894C35.4529 84.2193 35.3791 84.1323 35.2915 84.029C34.4719 83.0624 32.4419 80.6684 34.9823 77.3334C34.1606 76.412 33.1746 74.0568 34.1119 72.2567C23.564 60.2851 21.8537 49.2227 25.0004 47.1054L24.8897 46.8314C22.2345 40.2616 21.2819 37.9044 23.9535 34.3894C20.8433 28.6904 23.2171 22.2652 24.9943 22.0029C23.8744 19.2266 23.5518 15.3947 24.7387 12.9906C25.1437 12.174 25.678 11.8656 26.4408 11.4253C26.6983 11.2767 26.9817 11.1131 27.295 10.9099C27.3133 10.0679 27.8307 7.71869 28.6645 6.27258C29.4923 4.83257 34.1424 1.60476 35.0919 1.7756C35.7675 1.84272 38.1777 2.89832 38.9872 3.78308C39.1577 4.16749 39.322 4.558 39.4863 4.96071C41.154 3.41697 44.173 1.45831 44.9155 1.59255C45.5911 1.65967 48.0014 2.71527 48.8109 3.60002C49.6707 5.52838 50.3884 7.61637 51.1256 9.76116C52.5018 13.765 53.946 17.9669 56.5103 21.6978C59.7936 26.4727 64.258 31.5812 68.4429 36.3697C71.5736 39.952 74.5479 43.3553 76.7541 46.3061C76.8992 46.5 77.0383 46.688 77.1774 46.8759L77.1801 46.8796C77.2934 46.8175 77.3351 47.3296 77.4182 48.3481C77.6207 50.8326 78.0688 56.3308 80.3999 63.8608C80.4057 62.6102 80.4102 61.3879 80.4146 60.2038C80.4468 51.4738 80.4714 44.8189 80.9538 44.201C82.3719 42.3827 83.4127 39.6552 82.7858 37.6355C82.1881 35.7104 80.0537 34.4024 78.2277 33.2834C77.1714 32.6361 76.2184 32.0521 75.7255 31.4483C72.2805 27.232 71.4649 24.3947 71.5745 20.9473C71.751 15.4435 73.4126 11.2272 77.8801 8.92684C81.6659 6.98039 87.4846 7.017 95.8353 7.90175C97.6917 3.19121 102.451 0 108.307 0C114.691 0 120.078 4.06986 121.533 9.53091C121.663 10.0157 121.306 10.2139 120.923 10.4266C120.593 10.6101 120.243 10.8043 120.169 11.2028C120.364 11.9899 120.467 12.8136 120.467 13.6557C120.467 19.733 115.069 24.6876 108.447 24.6876C101.824 24.6876 96.4257 19.733 96.4257 13.6557C96.4257 12.6977 96.5596 11.7702 96.8092 10.8855C96.8524 10.5389 96.7213 10.5037 96.4668 10.4354C96.3988 10.4171 96.3218 10.3965 96.237 10.3668L95.7662 10.3076C90.703 9.67043 86.0689 9.08724 82.4085 9.93363C78.4522 10.8489 75.6098 13.4055 74.6238 17.3594C73.163 23.2293 74.9038 26.2497 78.6409 28.6721C80.4669 29.8558 82.7737 31.2592 85.4152 32.0768C86.9882 32.5656 88.8383 32.9054 90.7323 33.2532C93.8509 33.826 97.0883 34.4205 99.402 35.7379C100.454 36.3372 100.938 36.9994 101.367 37.5858C101.919 38.3425 102.38 38.973 103.851 39.1792C104.572 40.1007 105.794 40.265 107.064 40.4357C108.325 40.6052 109.634 40.7811 110.546 41.7115C110.735 41.9034 110.596 42.2478 110.456 42.5939C110.32 42.9298 110.184 43.2674 110.346 43.4688C111.218 44.5665 112.842 45.4017 114.458 46.2329C116.47 47.2683 118.471 48.2976 118.995 49.8207C119.201 50.4247 118.891 51.0044 118.002 51.7793C118.222 52.4871 117.029 55.5197 116.335 55.9285C110.157 54.9827 109.682 55.4343 112.159 58.8085C112.598 59.2417 112.847 59.6017 112.932 59.9007C113.085 60.395 112.604 60.7916 112.05 61.0051C111.332 62.4635 109.98 62.8357 108.538 62.7808C107.448 62.738 105.635 62.4757 104.989 61.774C103.809 60.4981 104.005 62.2615 104.11 63.2117C104.137 63.4521 104.158 63.6404 104.149 63.7143C104.081 64.2698 103.828 64.8552 103.581 65.4241C103.343 65.9738 103.111 66.5081 103.06 66.9848C103.757 68.2239 104.064 69.6241 104.371 71.0248C104.55 71.8383 104.728 72.652 104.983 73.4344C105.689 75.5916 106.113 77.8042 106.534 79.9989C106.964 82.2363 107.39 84.4551 108.106 86.5775C108.546 87.8865 109.016 89.1022 109.465 90.265C111.454 95.4167 113.042 99.5316 109.944 106.127C109.889 106.243 109.834 106.353 109.767 106.463C109.813 106.744 109.844 107.035 109.875 107.326C109.93 107.85 109.985 108.373 110.126 108.824C110.886 111.233 111.594 114.468 112.358 117.958C114.006 125.487 115.913 134.199 119.153 138.339C120.212 139.693 122.494 139.988 124.837 140.29C127.634 140.652 130.518 141.024 131.508 143.226C132.212 144.792 131.103 145.825 129.991 146.861C129.535 147.286 129.078 147.711 128.745 148.175H109.153C108.514 147.295 108.205 146.287 107.9 145.293C107.636 144.431 107.376 143.581 106.907 142.836C105.004 139.814 103.53 136.638 102.051 133.454C100.753 130.659 99.4524 127.857 97.856 125.147C97.4334 124.43 96.8669 123.765 96.2824 123.078C95.3181 121.945 94.3049 120.754 93.8085 119.185C93.573 118.436 93.5811 117.635 93.5892 116.837C93.5958 116.191 93.6023 115.546 93.4798 114.932C91.3412 115.977 89.9866 117.19 88.6755 118.363C87.1545 119.725 85.6923 121.034 83.1328 121.968C74.3195 125.181 63.4132 127.481 53.8868 129.491L53.878 129.492C52.6441 129.753 51.4334 130.008 50.2534 130.26C50.2447 130.262 50.335 130.148 50.5024 129.938C52.3222 127.649 63.2499 113.903 55.2017 112.595C46.6993 111.214 26.964 117.091 25.5982 117.497C25.5522 117.511 25.527 117.519 25.5239 117.519C25.5195 117.524 25.6837 117.483 25.9915 117.406C29.1143 116.629 47.0216 112.169 53.814 113.913C60.8257 115.719 51.0629 127.49 48.0257 130.034C47.344 130.608 38.9325 137.972 39.3403 138.217C39.9032 138.552 40.65 138.524 41.3374 138.498C41.3695 138.497 41.4014 138.495 41.4332 138.494C41.464 138.493 41.4948 138.492 41.5253 138.491C42.5213 138.455 43.5414 138.408 44.5787 138.361C52.6635 137.99 61.797 137.572 68.7503 141.774C71.9823 143.726 69.2555 146.625 67.2226 148.175H3.9715V148.168ZM44.8486 93.985C47.0398 92.5854 47.2309 92.3237 47.8361 91.4952C47.9907 91.2835 48.1724 91.0348 48.4213 90.7206C46.851 89.5918 45.7372 87.7918 45.3598 86.4982C45.208 85.9788 45.2512 85.6621 45.3013 85.2953C45.3436 84.9855 45.3907 84.6399 45.3294 84.1063C45.2765 84.0362 45.2028 83.9492 45.1152 83.846C44.2955 82.8793 42.2656 80.4854 44.806 77.1503C43.9843 76.229 42.9983 73.8737 43.9356 72.0737C33.3937 60.1021 31.6834 49.0396 34.8301 46.9223L34.7194 46.6483C32.0643 40.0786 31.1116 37.7213 33.7833 34.2063C30.6731 28.5073 33.0468 22.0822 34.8241 21.8198C33.7041 19.0435 33.3816 15.2116 34.5684 12.8075C34.9734 11.9909 35.5077 11.6825 36.2706 11.2423C36.528 11.0937 36.8115 10.9301 37.1248 10.7269C37.1369 10.2448 37.3074 9.26854 37.6117 8.25565L37.4534 7.89565C37.2183 7.64011 36.9395 7.27269 36.6499 6.89086C36.0472 6.09653 35.3973 5.23989 34.9945 5.19868C34.1545 5.04614 32.1643 6.90716 31.4217 8.18853C30.7898 9.28804 30.7942 10.9491 30.7966 11.8688C30.797 12.0209 30.7974 12.1528 30.7948 12.2584C30.5804 12.3973 30.3764 12.5221 30.1833 12.6403C29.3841 13.1293 28.7718 13.504 28.3845 14.2903C27.3316 16.4259 26.6194 20.514 27.6115 22.9791C26.029 23.211 24.1057 33.889 26.869 38.9535C24.6409 41.8752 24.8626 42.4194 26.8272 47.2422C26.9878 47.6366 27.1601 48.0596 27.3437 48.5149C24.55 50.3942 27.5202 61.5909 36.8874 72.2201C36.0596 73.8188 35.9318 76.2778 36.6622 77.0954C34.4095 80.0588 36.209 82.1819 36.9386 83.0427C37.0173 83.1355 37.0835 83.2136 37.1308 83.2765C37.1836 83.7468 37.1414 84.0534 37.1035 84.3283C37.0584 84.656 37.0195 84.9386 37.1552 85.3999C37.49 86.5531 38.476 88.1518 39.8698 89.1525C40.7523 91.1355 42.4992 92.722 44.8486 93.985ZM116.937 10.6292C117.148 11.0175 117.328 11.1446 117.475 11.2484C117.779 11.4626 117.942 11.5775 117.942 13.6862C117.942 16.8164 113.748 22.4422 108.574 22.4422C103.401 22.4422 99.2073 16.8164 99.2073 13.6862C99.2073 11.5795 99.3727 11.4628 99.6757 11.249C99.8229 11.1451 100.003 11.0183 100.212 10.6292H116.937Z" fill="#008789"/>
<path fill-rule="evenodd" clip-rule="evenodd" d="M3.9715 148.168C3.95313 147.974 3.94099 147.778 3.92884 147.582C3.88866 146.933 3.84833 146.281 3.58196 145.691C3.19037 144.821 2.6645 144.08 2.13403 143.333C1.48545 142.42 0.830014 141.497 0.4048 140.316C0.307416 140.053 0.26481 139.754 0.343935 139.486C4.03845 126.812 8.6216 115.469 20.3747 108.031C23.6588 105.954 27.0614 104.215 30.468 102.475C34.625 100.351 38.788 98.2237 42.7487 95.4739C40.8315 94.2108 39.389 92.6976 38.5916 90.9036C37.0213 89.7748 35.9075 87.9748 35.5301 86.6813C35.3777 86.1599 35.4218 85.8428 35.4731 85.4742C35.516 85.1655 35.564 84.8206 35.5057 84.2894C35.4529 84.2193 35.3791 84.1323 35.2915 84.029C34.4719 83.0624 32.4419 80.6684 34.9823 77.3334C34.1606 76.412 33.1746 74.0568 34.1119 72.2567C23.564 60.2851 21.8537 49.2227 25.0004 47.1054L24.8897 46.8314C22.2345 40.2616 21.2819 37.9044 23.9535 34.3894C20.8433 28.6904 23.2171 22.2652 24.9943 22.0029C23.8744 19.2266 23.5518 15.3947 24.7387 12.9906C25.1437 12.174 25.678 11.8656 26.4408 11.4253C26.6983 11.2767 26.9817 11.1131 27.295 10.9099C27.3133 10.0679 27.8307 7.71869 28.6645 6.27258C29.4923 4.83257 34.1424 1.60476 35.0919 1.7756C35.7675 1.84272 38.1777 2.89832 38.9872 3.78308C39.1577 4.16749 39.322 4.558 39.4863 4.96071C41.154 3.41697 44.173 1.45831 44.9155 1.59255C45.5911 1.65967 48.0014 2.71527 48.8109 3.60002C49.6707 5.52838 50.3884 7.61637 51.1256 9.76116C52.5018 13.765 53.946 17.9669 56.5103 21.6978C59.7936 26.4727 64.258 31.5812 68.4429 36.3697C71.5736 39.952 74.5479 43.3553 76.7541 46.3061C76.8992 46.5 77.0383 46.688 77.1774 46.8759L77.1801 46.8796C77.2934 46.8175 77.3351 47.3296 77.4182 48.3481C77.6207 50.8326 78.0688 56.3308 80.3999 63.8608C80.4057 62.6102 80.4102 61.3879 80.4146 60.2038C80.4468 51.4738 80.4714 44.8189 80.9538 44.201C82.3719 42.3827 83.4127 39.6552 82.7858 37.6355C82.1881 35.7104 80.0537 34.4024 78.2277 33.2834C77.1714 32.6361 76.2184 32.0521 75.7255 31.4483C72.2805 27.232 71.4649 24.3947 71.5745 20.9473C71.751 15.4435 73.4126 11.2272 77.8801 8.92684C81.6659 6.98039 87.4846 7.017 95.8353 7.90175C97.6917 3.19121 102.451 0 108.307 0C114.691 0 120.078 4.06986 121.533 9.53091C121.663 10.0157 121.306 10.2139 120.923 10.4266C120.593 10.6101 120.243 10.8043 120.169 11.2028C120.364 11.9899 120.467 12.8136 120.467 13.6557C120.467 19.733 115.069 24.6876 108.447 24.6876C101.824 24.6876 96.4257 19.733 96.4257 13.6557C96.4257 12.6977 96.5596 11.7702 96.8092 10.8855C96.8524 10.5389 96.7213 10.5037 96.4668 10.4354C96.3988 10.4171 96.3218 10.3965 96.237 10.3668L95.7662 10.3076C90.703 9.67043 86.0689 9.08724 82.4085 9.93363C78.4522 10.8489 75.6098 13.4055 74.6238 17.3594C73.163 23.2293 74.9038 26.2497 78.6409 28.6721C80.4669 29.8558 82.7737 31.2592 85.4152 32.0768C86.9882 32.5656 88.8383 32.9054 90.7323 33.2532C93.8509 33.826 97.0883 34.4205 99.402 35.7379C100.454 36.3372 100.938 36.9994 101.367 37.5858C101.919 38.3425 102.38 38.973 103.851 39.1792C104.572 40.1007 105.794 40.265 107.064 40.4357C108.325 40.6052 109.634 40.7811 110.546 41.7115C110.735 41.9034 110.596 42.2478 110.456 42.5939C110.32 42.9298 110.184 43.2674 110.346 43.4688C111.218 44.5665 112.842 45.4017 114.458 46.2329C116.47 47.2683 118.471 48.2976 118.995 49.8207C119.201 50.4247 118.891 51.0044 118.002 51.7793C118.222 52.4871 117.029 55.5197 116.335 55.9285C110.157 54.9827 109.682 55.4343 112.159 58.8085C112.598 59.2417 112.847 59.6017 112.932 59.9007C113.085 60.395 112.604 60.7916 112.05 61.0051C111.332 62.4635 109.98 62.8357 108.538 62.7808C107.448 62.738 105.635 62.4757 104.989 61.774C103.809 60.4981 104.005 62.2615 104.11 63.2117C104.137 63.4521 104.158 63.6404 104.149 63.7143C104.081 64.2698 103.828 64.8552 103.581 65.4241C103.343 65.9738 103.111 66.5081 103.06 66.9848C103.757 68.2239 104.064 69.6241 104.371 71.0248C104.55 71.8383 104.728 72.652 104.983 73.4344C105.689 75.5916 106.113 77.8042 106.534 79.9989C106.964 82.2363 107.39 84.4551 108.106 86.5775C108.546 87.8865 109.016 89.1022 109.465 90.265C111.454 95.4167 113.042 99.5316 109.944 106.127C109.889 106.243 109.834 106.353 109.767 106.463C109.813 106.744 109.844 107.035 109.875 107.326C109.93 107.85 109.985 108.373 110.126 108.824C110.886 111.233 111.594 114.468 112.358 117.958C114.006 125.487 115.913 134.199 119.153 138.339C120.212 139.693 122.494 139.988 124.837 140.29C127.634 140.652 130.518 141.024 131.508 143.226C132.212 144.792 131.103 145.825 129.991 146.861C129.535 147.286 129.078 147.711 128.745 148.175H109.153C108.514 147.295 108.205 146.287 107.9 145.293C107.636 144.431 107.376 143.581 106.907 142.836C105.004 139.814 103.53 136.638 102.051 133.454C100.753 130.659 99.4524 127.857 97.856 125.147C97.4334 124.43 96.8669 123.765 96.2824 123.078C95.3181 121.945 94.3049 120.754 93.8085 119.185C93.573 118.436 93.5811 117.635 93.5892 116.837C93.5958 116.191 93.6023 115.546 93.4798 114.932C91.3412 115.977 89.9866 117.19 88.6755 118.363C87.1545 119.725 85.6923 121.034 83.1328 121.968C74.3195 125.181 63.4132 127.481 53.8868 129.491L53.878 129.492C52.6441 129.753 51.4334 130.008 50.2534 130.26C50.2447 130.262 50.335 130.148 50.5024 129.938C52.3222 127.649 63.2499 113.903 55.2017 112.595C46.6993 111.214 26.964 117.091 25.5982 117.497C25.5522 117.511 25.527 117.519 25.5239 117.519C25.5195 117.524 25.6837 117.483 25.9915 117.406C29.1143 116.629 47.0216 112.169 53.814 113.913C60.8257 115.719 51.0629 127.49 48.0257 130.034C47.344 130.608 38.9325 137.972 39.3403 138.217C39.9032 138.552 40.65 138.524 41.3374 138.498C41.3695 138.497 41.4014 138.495 41.4332 138.494C41.464 138.493 41.4948 138.492 41.5253 138.491C42.5213 138.455 43.5414 138.408 44.5787 138.361C52.6635 137.99 61.797 137.572 68.7503 141.774C71.9823 143.726 69.2555 146.625 67.2226 148.175H3.9715V148.168ZM44.8486 93.985C47.0398 92.5854 47.2309 92.3237 47.8361 91.4952C47.9907 91.2835 48.1724 91.0348 48.4213 90.7206C46.851 89.5918 45.7372 87.7918 45.3598 86.4982C45.208 85.9788 45.2512 85.6621 45.3013 85.2953C45.3436 84.9855 45.3907 84.6399 45.3294 84.1063C45.2765 84.0362 45.2028 83.9492 45.1152 83.846C44.2955 82.8793 42.2656 80.4854 44.806 77.1503C43.9843 76.229 42.9983 73.8737 43.9356 72.0737C33.3937 60.1021 31.6834 49.0396 34.8301 46.9223L34.7194 46.6483C32.0643 40.0786 31.1116 37.7213 33.7833 34.2063C30.6731 28.5073 33.0468 22.0822 34.8241 21.8198C33.7041 19.0435 33.3816 15.2116 34.5684 12.8075C34.9734 11.9909 35.5077 11.6825 36.2706 11.2423C36.528 11.0937 36.8115 10.9301 37.1248 10.7269C37.1369 10.2448 37.3074 9.26854 37.6117 8.25565L37.4534 7.89565C37.2183 7.64011 36.9395 7.27269 36.6499 6.89086C36.0472 6.09653 35.3973 5.23989 34.9945 5.19868C34.1545 5.04614 32.1643 6.90716 31.4217 8.18853C30.7898 9.28804 30.7942 10.9491 30.7966 11.8688C30.797 12.0209 30.7974 12.1528 30.7948 12.2584C30.5804 12.3973 30.3764 12.5221 30.1833 12.6403C29.3841 13.1293 28.7718 13.504 28.3845 14.2903C27.3316 16.4259 26.6194 20.514 27.6115 22.9791C26.029 23.211 24.1057 33.889 26.869 38.9535C24.6409 41.8752 24.8626 42.4194 26.8272 47.2422C26.9878 47.6366 27.1601 48.0596 27.3437 48.5149C24.55 50.3942 27.5202 61.5909 36.8874 72.2201C36.0596 73.8188 35.9318 76.2778 36.6622 77.0954C34.4095 80.0588 36.209 82.1819 36.9386 83.0427C37.0173 83.1355 37.0835 83.2136 37.1308 83.2765C37.1836 83.7468 37.1414 84.0534 37.1035 84.3283C37.0584 84.656 37.0195 84.9386 37.1552 85.3999C37.49 86.5531 38.476 88.1518 39.8698 89.1525C40.7523 91.1355 42.4992 92.722 44.8486 93.985ZM116.937 10.6292C117.148 11.0175 117.328 11.1446 117.475 11.2484C117.779 11.4626 117.942 11.5775 117.942 13.6862C117.942 16.8164 113.748 22.4422 108.574 22.4422C103.401 22.4422 99.2073 16.8164 99.2073 13.6862C99.2073 11.5795 99.3727 11.4628 99.6757 11.249C99.8229 11.1451 100.003 11.0183 100.212 10.6292H116.937Z" fill="url(#paint0_linear)"/>
<path d="M0.0200002 161.95H12.494V166.045H4.556V184H0.0200002V161.95Z" fill="#008789"/>
<path d="M0.0200002 161.95H12.494V166.045H4.556V184H0.0200002V161.95Z" fill="url(#paint1_linear)"/>
<path fill-rule="evenodd" clip-rule="evenodd" d="M15.1518 161.95H22.3023C24.9273 161.95 26.9538 162.58 28.3818 163.84C29.8098 165.1 30.5238 166.822 30.5238 169.006C30.5238 171.169 29.8098 172.88 28.3818 174.141C26.9538 175.38 24.9273 175.999 22.3023 175.999H19.6878V184H15.1518V161.95ZM22.3023 165.793H19.6878V172.156H22.3023C23.4783 172.156 24.4128 171.893 25.1058 171.368C25.7988 170.822 26.1453 170.035 26.1453 169.006C26.1453 167.956 25.7988 167.158 25.1058 166.612C24.4128 166.066 23.4783 165.793 22.3023 165.793Z" fill="#008789"/>
<path fill-rule="evenodd" clip-rule="evenodd" d="M15.1518 161.95H22.3023C24.9273 161.95 26.9538 162.58 28.3818 163.84C29.8098 165.1 30.5238 166.822 30.5238 169.006C30.5238 171.169 29.8098 172.88 28.3818 174.141C26.9538 175.38 24.9273 175.999 22.3023 175.999H19.6878V184H15.1518V161.95ZM22.3023 165.793H19.6878V172.156H22.3023C23.4783 172.156 24.4128 171.893 25.1058 171.368C25.7988 170.822 26.1453 170.035 26.1453 169.006C26.1453 167.956 25.7988 167.158 25.1058 166.612C24.4128 166.066 23.4783 165.793 22.3023 165.793Z" fill="url(#paint2_linear)"/>
<path d="M38.4495 161.95V175.275L54.0735 160.848V184H49.695V170.676L34.0395 185.102V161.95H38.4495Z" fill="#008789"/>
<path d="M38.4495 161.95V175.275L54.0735 160.848V184H49.695V170.676L34.0395 185.102V161.95H38.4495Z" fill="url(#paint3_linear)"/>
<path fill-rule="evenodd" clip-rule="evenodd" d="M68.0945 161.95H72.7565V164.47H72.9455C74.8775 164.47 76.61 164.816 78.143 165.51C79.697 166.182 80.915 167.148 81.797 168.408C82.7 169.667 83.1515 171.19 83.1515 172.975C83.1515 174.739 82.7 176.262 81.797 177.542C80.915 178.803 79.697 179.779 78.143 180.472C76.61 181.144 74.8775 181.48 72.9455 181.48H72.7565V184H68.0945V181.48H67.9055C65.9735 181.48 64.2305 181.144 62.6765 180.472C61.1435 179.779 59.9255 178.803 59.0225 177.542C58.1405 176.262 57.6995 174.739 57.6995 172.975C57.6995 171.19 58.1405 169.667 59.0225 168.408C59.9255 167.148 61.1435 166.182 62.6765 165.51C64.2305 164.816 65.9735 164.47 67.9055 164.47H68.0945V161.95ZM78.5525 172.975C78.5525 171.442 78.017 170.339 76.946 169.667C75.896 168.975 74.4995 168.596 72.7565 168.533V177.417C74.4995 177.354 75.896 176.986 76.946 176.314C78.017 175.621 78.5525 174.508 78.5525 172.975ZM62.2985 172.975C62.2985 174.508 62.8235 175.621 63.8735 176.314C64.9445 176.986 66.3515 177.354 68.0945 177.417V168.533C66.3515 168.596 64.9445 168.975 63.8735 169.667C62.8235 170.339 62.2985 171.442 62.2985 172.975Z" fill="#008789"/>
<path fill-rule="evenodd" clip-rule="evenodd" d="M68.0945 161.95H72.7565V164.47H72.9455C74.8775 164.47 76.61 164.816 78.143 165.51C79.697 166.182 80.915 167.148 81.797 168.408C82.7 169.667 83.1515 171.19 83.1515 172.975C83.1515 174.739 82.7 176.262 81.797 177.542C80.915 178.803 79.697 179.779 78.143 180.472C76.61 181.144 74.8775 181.48 72.9455 181.48H72.7565V184H68.0945V181.48H67.9055C65.9735 181.48 64.2305 181.144 62.6765 180.472C61.1435 179.779 59.9255 178.803 59.0225 177.542C58.1405 176.262 57.6995 174.739 57.6995 172.975C57.6995 171.19 58.1405 169.667 59.0225 168.408C59.9255 167.148 61.1435 166.182 62.6765 165.51C64.2305 164.816 65.9735 164.47 67.9055 164.47H68.0945V161.95ZM78.5525 172.975C78.5525 171.442 78.017 170.339 76.946 169.667C75.896 168.975 74.4995 168.596 72.7565 168.533V177.417C74.4995 177.354 75.896 176.986 76.946 176.314C78.017 175.621 78.5525 174.508 78.5525 172.975ZM62.2985 172.975C62.2985 174.508 62.8235 175.621 63.8735 176.314C64.9445 176.986 66.3515 177.354 68.0945 177.417V168.533C66.3515 168.596 64.9445 168.975 63.8735 169.667C62.8235 170.339 62.2985 171.442 62.2985 172.975Z" fill="url(#paint4_linear)"/>
<path fill-rule="evenodd" clip-rule="evenodd" d="M85.5359 172.975C85.5359 171.295 85.8299 169.762 86.4179 168.376C87.0059 166.969 87.8249 165.762 88.8749 164.753C89.9459 163.725 91.1849 162.926 92.5919 162.359C93.9989 161.792 95.5319 161.509 97.1909 161.509C98.8709 161.509 100.414 161.792 101.821 162.359C103.228 162.926 104.457 163.725 105.507 164.753C106.578 165.762 107.397 166.969 107.964 168.376C108.552 169.762 108.846 171.295 108.846 172.975C108.846 174.634 108.552 176.178 107.964 177.605C107.397 179.012 106.588 180.241 105.538 181.291C104.509 182.32 103.281 183.128 101.853 183.717C100.446 184.283 98.8919 184.567 97.1909 184.567C95.4899 184.567 93.9254 184.283 92.4974 183.717C91.0904 183.128 89.8619 182.32 88.8119 181.291C87.7829 180.241 86.9744 179.012 86.3864 177.605C85.8194 176.178 85.5359 174.634 85.5359 172.975ZM90.3239 172.975C90.3239 174.382 90.6074 175.632 91.1744 176.723C91.7624 177.816 92.5709 178.676 93.5999 179.307C94.6499 179.915 95.8469 180.22 97.1909 180.22C98.5559 180.22 99.7529 179.915 100.782 179.307C101.811 178.676 102.609 177.816 103.176 176.723C103.764 175.632 104.058 174.382 104.058 172.975C104.058 171.568 103.774 170.318 103.207 169.227C102.64 168.135 101.842 167.284 100.813 166.675C99.7844 166.045 98.5769 165.73 97.1909 165.73C95.8469 165.73 94.6499 166.045 93.5999 166.675C92.5709 167.284 91.7624 168.135 91.1744 169.227C90.6074 170.318 90.3239 171.568 90.3239 172.975Z" fill="#008789"/>
<path fill-rule="evenodd" clip-rule="evenodd" d="M85.5359 172.975C85.5359 171.295 85.8299 169.762 86.4179 168.376C87.0059 166.969 87.8249 165.762 88.8749 164.753C89.9459 163.725 91.1849 162.926 92.5919 162.359C93.9989 161.792 95.5319 161.509 97.1909 161.509C98.8709 161.509 100.414 161.792 101.821 162.359C103.228 162.926 104.457 163.725 105.507 164.753C106.578 165.762 107.397 166.969 107.964 168.376C108.552 169.762 108.846 171.295 108.846 172.975C108.846 174.634 108.552 176.178 107.964 177.605C107.397 179.012 106.588 180.241 105.538 181.291C104.509 182.32 103.281 183.128 101.853 183.717C100.446 184.283 98.8919 184.567 97.1909 184.567C95.4899 184.567 93.9254 184.283 92.4974 183.717C91.0904 183.128 89.8619 182.32 88.8119 181.291C87.7829 180.241 86.9744 179.012 86.3864 177.605C85.8194 176.178 85.5359 174.634 85.5359 172.975ZM90.3239 172.975C90.3239 174.382 90.6074 175.632 91.1744 176.723C91.7624 177.816 92.5709 178.676 93.5999 179.307C94.6499 179.915 95.8469 180.22 97.1909 180.22C98.5559 180.22 99.7529 179.915 100.782 179.307C101.811 178.676 102.609 177.816 103.176 176.723C103.764 175.632 104.058 174.382 104.058 172.975C104.058 171.568 103.774 170.318 103.207 169.227C102.64 168.135 101.842 167.284 100.813 166.675C99.7844 166.045 98.5769 165.73 97.1909 165.73C95.8469 165.73 94.6499 166.045 93.5999 166.675C92.5709 167.284 91.7624 168.135 91.1744 169.227C90.6074 170.318 90.3239 171.568 90.3239 172.975Z" fill="url(#paint5_linear)"/>
<path d="M112.328 161.95H116.864V170.203H127.133V161.95H131.669V184H127.133V174.329H116.864V184H112.328V161.95Z" fill="#008789"/>
<path d="M112.328 161.95H116.864V170.203H127.133V161.95H131.669V184H127.133V174.329H116.864V184H112.328V161.95Z" fill="url(#paint6_linear)"/>
<path d="M131.77 155.924H0V158.145H131.77V155.924Z" fill="#008789"/>
<path d="M131.77 155.924H0V158.145H131.77V155.924Z" fill="url(#paint7_linear)"/>
<defs>
<linearGradient id="paint0_linear" x1="66.0101" y1="0" x2="66.0101" y2="185.12" gradientUnits="userSpaceOnUse">
<stop stop-color="#43C2C2"/>
<stop offset="1" stop-color="#0075FF"/>
</linearGradient>
<linearGradient id="paint1_linear" x1="66.0101" y1="0" x2="66.0101" y2="185.12" gradientUnits="userSpaceOnUse">
<stop stop-color="#43C2C2"/>
<stop offset="1" stop-color="#0075FF"/>
</linearGradient>
<linearGradient id="paint2_linear" x1="66.0101" y1="0" x2="66.0101" y2="185.12" gradientUnits="userSpaceOnUse">
<stop stop-color="#43C2C2"/>
<stop offset="1" stop-color="#0075FF"/>
</linearGradient>
<linearGradient id="paint3_linear" x1="66.0101" y1="0" x2="66.0101" y2="185.12" gradientUnits="userSpaceOnUse">
<stop stop-color="#43C2C2"/>
<stop offset="1" stop-color="#0075FF"/>
</linearGradient>
<linearGradient id="paint4_linear" x1="66.0101" y1="0" x2="66.0101" y2="185.12" gradientUnits="userSpaceOnUse">
<stop stop-color="#43C2C2"/>
<stop offset="1" stop-color="#0075FF"/>
</linearGradient>
<linearGradient id="paint5_linear" x1="66.0101" y1="0" x2="66.0101" y2="185.12" gradientUnits="userSpaceOnUse">
<stop stop-color="#43C2C2"/>
<stop offset="1" stop-color="#0075FF"/>
</linearGradient>
<linearGradient id="paint6_linear" x1="66.0101" y1="0" x2="66.0101" y2="185.12" gradientUnits="userSpaceOnUse">
<stop stop-color="#43C2C2"/>
<stop offset="1" stop-color="#0075FF"/>
</linearGradient>
<linearGradient id="paint7_linear" x1="66.0101" y1="0" x2="66.0101" y2="185.12" gradientUnits="userSpaceOnUse">
<stop stop-color="#43C2C2"/>
<stop offset="1" stop-color="#0075FF"/>
</linearGradient>
</defs>
</svg>
