<svg width="24" height="24" viewBox="0 0 24 24" fill="none" xmlns="http://www.w3.org/2000/svg">
<path d="M0 12C0 5.37258 5.37258 0 12 0C18.6274 0 24 5.37258 24 12C24 18.6274 18.6274 24 12 24C5.37258 24 0 18.6274 0 12Z" fill="#419FD9"/>
<path fill-rule="evenodd" clip-rule="evenodd" d="M14.6678 17.9422C15.5065 18.3091 15.8211 17.5403 15.8211 17.5403L18.0403 6.3918C18.0228 5.64041 17.0093 6.09474 17.0093 6.09474L4.58525 10.97C4.58525 10.97 3.99114 11.1797 4.04356 11.5466C4.09598 11.9136 4.56778 12.0883 4.56778 12.0883L7.69564 13.1368C7.69564 13.1368 8.63924 16.2297 8.83145 16.8238C9.00619 17.4005 9.16346 17.4179 9.16346 17.4179C9.3382 17.4878 9.49547 17.3655 9.49547 17.3655L11.5225 15.5307L14.6678 17.9422ZM15.2095 8.36635C15.2095 8.36635 15.6463 8.10424 15.6289 8.36635C15.6289 8.36635 15.6988 8.4013 15.4716 8.64593C15.2619 8.85562 10.3168 13.294 9.65274 13.8882C9.60032 13.9231 9.56537 13.9755 9.56537 14.0454L9.37315 15.688C9.3382 15.8627 9.11104 15.8802 9.05862 15.7229L8.23734 13.0319C8.20239 12.9271 8.23734 12.8048 8.34218 12.7349L15.2095 8.36635Z" fill="white"/>
</svg>
